<?xml version="1.0" encoding="UTF-8"?>
<svg id="Objects" xmlns="http://www.w3.org/2000/svg" version="1.1" viewBox="0 0 2200 2200">
  <!-- Generator: Adobe Illustrator 29.6.0, SVG Export Plug-In . SVG Version: 2.1.1 Build 142)  -->
  <defs>
    <style>
      .st0 {
        fill: #191919;
      }
    </style>
  </defs>
  <path class="st0" d="M687.55,1524.08c.08.01.15.03.22.04,0,0,.02-.01.02-.01-.05-.01-.11-.02-.16-.03-.02,0-.04,0-.07,0Z"/>
  <path class="st0" d="M687.64,1524.08c.05.01.11.02.16.03.03-.03-.02-.04-.16-.03Z"/>
  <path class="st0" d="M687.32,1524.04c.06.01.12.02.18.03.02,0,.03,0,.05-.01-.03,0-.04,0-.07-.01.03,0,.05,0,.07.01.15-.03.33-.07.52-.12-.23-.02-.49,0-.76.09Z"/>
  <path class="st0" d="M687.2,1524.14c.15-.03.26-.04.35-.06-.02,0-.04,0-.06-.01-.23.05-.37.08-.29.07Z"/>
  <path class="st0" d="M687.64,1524.08s-.05,0-.08-.02c0,0,0,0,0,0,.03,0,.05.01.08.02,0,0,0,0,.01,0Z"/>
  <path class="st0" d="M1232.7,1649c-.67-.09-1.72-.3-.63-.06.23.02.45.04.63.06h0Z"/>
  <path class="st0" d="M1191,1550.43c-.29.14-.57.28-.86.43.34-.08.69-.19,1.06-.31-.07-.04-.14-.08-.21-.12Z"/>
  <path class="st0" d="M2005.73,1746.85c-19.58-31.23-54.36-44.59-89.65-48.42-42.79-4.64-84.13,3.03-123.64,19.4-41.62,17.24-80.48,41.94-123.95,54.57-8.95,2.6-18.05,4.64-27.29,5.9-3.37.46-7.07.83-10.17,1.01-4.88.28-5.91.28-10.47-.03-16.24-1.12-33.57-6.7-47.79-15.65-18.07-11.38-30.37-28.01-37.82-46.9,5.66-3.01,11.23-6.27,16.68-9.81,36.9-23.94,67.17-57.51,90.36-94.68,13.11-21.02,25.51-44.59,25.62-69.98.08-19.63-9.17-40.22-26.07-50.99-9.23-5.88-20.18-7.69-30.94-8.15-12.25-.52-25.2.02-36.68,4.74-17.31,7.11-29.36,23.57-38.14,39.43-11.26,20.33-18.91,42.97-26.23,64.95-8.15,24.5-14.52,50.06-14.32,76.04.13,16.57,3.09,32.94,8.99,47.86-14.06,7.47-28.92,13.48-44.34,17.44-8.29,2.13-16.75,3.63-25.28,4.34-7.29.6-12.18.55-20.24-.3-36.22-3.82-71.85-20.94-96.38-48.01-12.74-14.05-21.82-31.04-27.14-49.19,12.89-7.81,23.44-19.11,31-32.32,5.45-9.52,9.56-20.15,11.64-30.94,1.31-6.8.14-13.45-4.32-18.87-4.43-5.39-10.73-8.05-17.46-9.31-11.11-2.09-24.01-2.31-35,.56-18.04,4.72-20.26,24.11-21.62,40.12-1.45,17.14.35,34.17,5.1,50.23-5.63,3.24-11.65,5.73-17.94,7.4-3.14.83-6.42,1.38-9.34,1.72.56-.06,1.84-.06-.18.01,0,0,0,0,0,0,0,0,0,0,0,0-.1,0-.21,0-.32.01-.02,0-.03,0-.06-.01-.09-.02-.18-.04-.25-.06-.74-.07-1.63-.15-1.8-.17-8.91-1.15-17.66-4.25-25.59-8.84,2.79-2.91,5.53-5.91,8.18-9.03,13.95-16.35,28.18-36.9,22.85-59.53-2.09-8.9-7.26-17.52-15.21-22.35-11-6.69-26.45-6.39-38.76-5.28-21.83,1.96-39.49,15-41.25,38.06-1.51,19.78,8.38,39.07,23.31,51.62,3.11,2.61,6.41,4.9,9.86,6.93-2.92,2.93-5.9,5.77-8.87,8.49-12.67,11.62-26.74,21.66-41.75,30.03-29.89,16.66-63.07,26.47-96.72,31.97-35.12,5.74-68.53,6.8-102.8,6.6-1.21,0-2.4-.02-3.59-.03,8.7-2.59,15.83-8.11,17.96-17.14.76-3.23.48-6.83.53-10.12.08-6.04.16-12.09.24-18.13.14-10.85.28-21.69.42-32.54.36-27.72.72-55.43,1.09-83.15.57-43.79,1.14-87.59,1.72-131.38.13-10.12.26-20.25.4-30.37.01-.92-.31-1.74-.87-2.48-1-2.49-2.71-5.07-3.76-7.28-3.1-6.54-6.21-13.07-9.31-19.61-10.38-21.87-20.77-43.74-31.15-65.61-14.56-30.68-29.12-61.35-43.69-92.03-17.1-36.03-34.2-72.05-51.31-108.08-18-37.92-36.01-75.85-54.01-113.77-17.26-36.37-34.53-72.73-51.79-109.1-14.89-31.36-29.77-62.72-44.66-94.07-10.87-22.89-21.74-45.79-32.61-68.68-5.21-10.98-10.38-21.98-15.64-32.94-.23-.48-.45-.96-.68-1.44-.02-.05-.06-.09-.09-.14-.02-.56-.16-1.16-.46-1.79-17.3-36.43-34.59-72.87-51.89-109.3-2.38-5.01-4.75-10.01-7.13-15.02-.08-.25-.17-.5-.29-.76-14.3-30.12-28.6-60.24-42.9-90.36-11.73-24.71-33.55-42.64-60.34-48.86-18.43-4.28-38.04-4.04-56.11,1.89-6.12,2.01-11.91,4.73-17.71,7.49-35.68,16.94-71.37,33.88-107.05,50.82-15,7.12-30.14,13.69-41.77,26.09-22.31,23.78-28.96,58.43-16,88.54,5.89,13.68,12.77,27.01,19.15,40.46,8.2,17.26,16.39,34.52,24.59,51.79.49,1.03.98,2.07,1.47,3.1.11.23.24.44.38.65,17.17,36.17,34.34,72.33,51.51,108.5,2.47,5.21,4.95,10.42,7.42,15.63.27.56.64,1.08,1.1,1.55,3.05,6.43,6.1,12.86,9.16,19.29,9.66,20.34,19.31,40.68,28.97,61.01,14.07,29.63,28.14,59.27,42.21,88.9,16.84,35.47,33.68,70.95,50.53,106.42,17.98,37.86,35.95,75.73,53.93,113.59,17.54,36.94,35.07,73.88,52.61,110.81,15.31,32.26,30.63,64.51,45.94,96.77,11.52,24.27,23.05,48.54,34.57,72.81,6.09,12.83,12.19,25.67,18.28,38.5.47,1,.88,2.09,1.44,3.04.06.1.14.18.2.28-.18,1.34.38,2.75,2.1,4.12,21.71,17.24,43.41,34.48,65.12,51.72,34.3,27.24,68.59,54.48,102.89,81.72,7.93,6.3,15.86,12.59,23.78,18.89,1.21.96,2.58,1.72,4.04,2.32,13.48,10.81,26.78,21.94,40.63,32.25,2.61,1.94,5.81,3.5,9.33,4.65-7.05-.2-14.25-.44-21.92-.72-18.02-.65-36.03-1.42-54.05-2.02-17.46-.59-34.92-1.03-52.39-1.04-1.7,0-15.35-.28-15.35,2.42s14.49,2.42,15.35,2.42c4.46,0,8.93.03,13.39.09,2.4.03,4.79.07,7.19.11.15,0,.9.02,1.33.03,1.43.03,2.86.07,4.28.1,9.34.23,18.68.55,28.01.89,19.86.72,39.71,1.58,59.57,2.19,42.55,1.32,85.21,1.67,127.66-1.92,68.45-5.78,138.51-23.35,189.63-70.15,6.19,1.71,12.55,2.88,18.92,3.58,16.3,1.8,33.63,1.67,49.9-2,8.13,20.72,21.37,39.37,39.07,53.93,34,27.95,78.26,37.94,121.43,38.3,29.52.25,58.31-4.66,85.33-14.94,10.14,18.9,25.64,34.54,46.79,43.85,20.48,9.01,43.01,11.86,65.2,12.24,22.91.4,45.92-2.13,68.09-7.98,47.68-12.59,89.77-39.98,135.17-58.38,19.03-7.71,40.45-14.6,60.22-15.76,6.58-.39,12.28-.18,21.4,1.38,9.18,1.57,18.25,4.26,26.76,8.04,17.05,7.59,31.69,19.43,41.64,35.3,2.07,3.3,12.04,2.42,15.34,2.42,1.09,0,15.99-1.39,15.35-2.42ZM610.61,760.56c13.63,28.71,27.26,57.42,40.89,86.14,16.45,34.66,32.9,69.31,49.36,103.97,17.66,37.21,35.33,74.41,52.99,111.62,17.25,36.33,34.49,72.65,51.74,108.98,15.41,32.46,30.82,64.91,46.23,97.37,11.94,25.15,23.88,50.29,35.81,75.44,6.89,14.51,13.78,29.02,20.66,43.53.9,1.91,3.02,4.76,3.27,6.89.08.69-.35,1.64-.53,2.29-1.07,3.87-2.49,7.67-4.2,11.31-2.47,5.25-5.74,10.21-9.77,14.39-2.07,2.14-4.37,4.2-6.92,5.75-1.14.7-2.37,1.3-3.61,1.83-.64-.18-1.31-.36-1.73-.5-2.09-.69-4.57-1.79-6.71-2.85-1.81-.89-3.58-1.86-5.3-2.91-.21-.15-1.03-.68-1.36-.92-2.85-6.01-5.7-12.01-8.56-18.02-8.21-17.29-16.42-34.58-24.62-51.87-12.08-25.44-24.16-50.89-36.24-76.33-14.8-31.17-29.6-62.35-44.4-93.52-16.21-34.15-32.43-68.31-48.64-102.46-16.37-34.47-32.73-68.95-49.1-103.42-15.2-32.01-30.39-64.02-45.59-96.03l-38.71-81.53c-9.28-19.54-18.55-39.08-27.83-58.62-4.18-8.8-8.06-17.83-12.53-26.49,10.04-4.77,20.08-9.53,30.12-14.3l13.6-6.46c1.2,2.52,2.39,5.04,3.59,7.57,9.36,19.72,18.72,39.44,28.08,59.16ZM767.7,1485.29c-.13,0-.35.02-.71.05-.77.06-1.55.12-2.32.18-.63.05-.93.08-1.07.1-.17,0-.44,0-.89,0-1.59.02-3.18,0-4.77-.02-.78-.05-1.56-.08-2.35-.14-1.37-.09-2.73-.22-4.1-.36-.45-.07-2.38-.31-2.94-.39-1.16-.17-2.32-.36-3.48-.56-.41-.07-1.8-.34-2.45-.46-.4-.09-.82-.18-.98-.22-.04-.01-.09-.02-.13-.03-2.71-5.7-5.42-11.41-8.12-17.11-8.21-17.29-16.42-34.58-24.62-51.87-12.08-25.44-24.16-50.89-36.24-76.33-14.8-31.17-29.6-62.35-44.4-93.52-16.21-34.15-32.43-68.31-48.64-102.46-16.37-34.47-32.73-68.95-49.1-103.42-15.2-32.01-30.39-64.02-45.59-96.03-12.9-27.18-25.8-54.35-38.71-81.53-9.28-19.54-18.55-39.08-27.83-58.62-4.18-8.8-8.08-17.81-12.53-26.48,5.33-2.53,10.65-5.06,15.98-7.59l88.42-41.98c.75,1.57,1.49,3.14,2.24,4.71,8.21,17.29,16.42,34.58,24.62,51.87,12.08,25.44,24.16,50.89,36.24,76.33,14.8,31.17,29.6,62.35,44.4,93.52,16.21,34.15,32.43,68.31,48.64,102.46,16.37,34.47,32.73,68.95,49.1,103.42,15.2,32.01,30.39,64.02,45.59,96.03l38.71,81.53c9.28,19.54,18.55,39.08,27.83,58.62,4.38,9.22,8.43,18.71,13.17,27.75.2.38.37.79.56,1.18,0,0,0,0,0,0-5.23,12.47-13.86,24.42-23.19,34.31-8.65,9.16-18.71,16.88-30.34,21.83-6.27,2.66-12.89,4.37-19.64,5.18-.14.02-.25.03-.35.04ZM405,426.96c-.5.08-.89.13,0,0h0ZM233.73,590.51c-3.28-6.91-6.28-13.87-7.61-21.47-2.54-14.46-.9-29.45,5.19-42.83,5.91-12.98,15.78-24.46,27.86-31.31,3.74-2.12,7.7-3.88,11.58-5.72,34.92-16.58,69.84-33.15,104.76-49.73,5.18-2.46,10.35-4.92,15.53-7.37.93-.44,1.86-.89,2.8-1.32,3.19-1.47,4.42-1.92,8.53-3.07,1.01-.28,2.03-.55,3.06-.79.15-.02.32-.05.51-.08,1.96-.29,3.98-.46,5.93-.8.85.02,1.7-.06,2.55-.07.88,0,1.76.01,2.64.02.18,0,.69.03,1.15.05.81.11,3.42.39,3.91.46.86.13,1.72.28,2.58.43.2.04.34.06.44.08.33.08.66.15.99.24,7.25,1.95,10.95,3.35,17.87,7.58,10.52,6.44,19.66,17.36,25.36,29.13,14.2,29.33,27.97,58.89,41.94,88.33-28.15,13.37-56.3,26.73-84.46,40.1-47.87,22.73-95.75,45.46-143.62,68.18-4.41,2.09-8.83,4.19-13.24,6.28-12.08-25.44-24.16-50.89-36.24-76.33ZM283.29,695.05c-1.8-3.79-3.6-7.59-5.4-11.38,28.17-13.37,56.34-26.75,84.51-40.12,47.87-22.73,95.75-45.46,143.62-68.18,4.43-2.1,8.86-4.21,13.3-6.31,15.31,32.25,30.62,64.49,45.93,96.74,1.8,3.79,3.6,7.59,5.4,11.38-28.17,13.37-56.34,26.75-84.51,40.12-47.87,22.73-95.75,45.46-143.62,68.18-4.43,2.1-8.86,4.21-13.3,6.31-15.31-32.25-30.62-64.49-45.93-96.74ZM641.43,1450.19c-12.18-25.66-24.36-51.31-36.54-76.97-14.86-31.3-29.72-62.61-44.58-93.91-16.28-34.29-32.56-68.57-48.83-102.86-16.43-34.61-32.86-69.22-49.29-103.82-15.32-32.27-30.64-64.53-45.96-96.8-12.94-27.26-25.89-54.53-38.83-81.79-9.3-19.6-18.61-39.19-27.91-58.79-4.2-8.84-8.35-17.7-12.59-26.52,14.58-6.92,29.17-13.85,43.75-20.77.75,1.57,1.49,3.14,2.24,4.71,8.21,17.29,16.42,34.58,24.62,51.87,12.08,25.44,24.16,50.89,36.24,76.33,14.8,31.17,29.6,62.35,44.4,93.52,16.21,34.15,32.43,68.31,48.64,102.46,16.37,34.47,32.73,68.95,49.1,103.42,15.2,32.01,30.39,64.02,45.59,96.03,12.9,27.18,25.8,54.35,38.71,81.53,9.28,19.54,18.55,39.08,27.83,58.62,4.38,9.23,8.45,18.69,13.17,27.75.2.39.37.79.56,1.18,0,0,0,0,0,0-.62,11.09-4.57,23.25-12.29,31.38-2.91,3.07-6.37,5.63-10.44,6.93-.16.05-.56.15-.94.23.65.04.94.37-.27.16,0,0,0,0,0,0,.8.17.54.12-.02.01-.24.17-1.88.65-.71.02.08-.04.17-.08.26-.11-.69-.14-1.51-.3-1.56-.31,1.49.27-.77-.18-1.25-.3-.96-.24-1.91-.49-2.86-.77-1.82-.53-1.88-.53-3.21-1.05-1.66-1.32-3.31-2.63-4.97-3.95-2.44-5.14-4.88-10.29-7.33-15.43-8.24-17.35-16.47-34.69-24.71-52.04ZM799.79,1618.01c-34.3-27.24-68.59-54.48-102.89-81.72-1.71-1.36-3.42-2.72-5.13-4.08,5.48-.23,10.92-.91,16.23-2.12,14.09-3.21,24.02-11.68,29.64-24.88,1.62-3.81,2.92-7.9,3.77-12.06,18.14,1.91,36.96.71,54.09-3.06,28.49-6.27,51.34-24.48,66.93-48.72,1.14-1.77,2.25-3.57,3.33-5.39,1.81.47,3.62.89,5.44,1.23,12.76,2.39,27.41,2.47,39.86-2.36-.19,14.29-.37,28.57-.56,42.86-.57,43.79-1.14,87.59-1.72,131.38-.09,6.87-.18,13.74-.27,20.61-14.56-.32-28.87,3-41.92,9.61-7.53,3.81-15.23,8.64-21.06,15.02-15.25-12.11-30.49-24.22-45.74-36.33ZM867.03,1672.32c.15-2.17.83-3.65,1.55-5.2,3.18-6.89,8.72-12.12,14.96-16.26,4.87-3.24,10.2-6.02,15.79-7.77.82-.26,1.63-.47,2.48-.67.02,0,2.76-.46,2.87-.53.42-.03.95-.08,1.36-.11.51,0,1.15,0,1.47,0,0,0,0,0,0,0-3.37.15-.78.04.31.1.17.06.35.1.54.15-.23,17.48-.46,34.96-.68,52.43-.04,3.14-.28,6.13-1.79,8.79-6.26-4.87-12.4-9.91-18.61-14.85-6.75-5.36-13.49-10.72-20.24-16.08ZM1171.48,1578.88c1.33-9.6,5.66-18.59,13.35-24.67,1.71-1.35,3.48-2.42,5.31-3.36-7.2,1.8-7.61-4.64-3.61-2.66,1.55.77,3.02,1.41,4.46,2.23,1.49-.73,3.02-1.4,4.6-2.09.28-.12.53-.23.74-.32-1.97,1.23-3.67,2.04-5.14,2.52.58.34,1.15.7,1.72,1.12,15.95,11.72,15.57,34.92,8.22,51.28-3.62,8.05-8.56,15.6-14.2,22.66-11.32-12.58-17.9-29.07-15.46-46.72ZM1232.85,1649.12c.21.04.28.06,0,0h0ZM1287.68,1575.66c1.34-6.98,2.77-14.74,8.25-19.7,10.56,8.45,7.18,23,3.01,34.93-3.11,8.9-7.44,17.42-12.91,25.1-1.42-13.46-.89-27.12,1.65-40.33ZM1601.39,1487.85c-.34.32-1.35-.63,0,0h0ZM1526.08,1659.58c1.11-23.8,7.28-47.08,14.88-69.55,6.82-20.17,13.87-40.82,23.84-59.69,8.11-15.35,18.82-31.11,34.63-39.32,1.18-.61,3.49-1.19,5.47-1.83,1.41.48,2.83.97,4.18,1.69,7.94,4.26,14.33,10.89,18.93,18.57,23.09,38.56-3.33,84.02-25.6,116.3-19.78,28.66-44.09,54.54-72.63,74.61-3.19-13.26-4.34-27.15-3.7-40.79Z"/>
</svg>